<svg width="25" height="25" viewBox="0 0 25 25" fill="none" xmlns="http://www.w3.org/2000/svg">
<path d="M5.4834 22.5962C4.9334 22.5962 4.46257 22.4004 4.0709 22.0087C3.67923 21.617 3.4834 21.1462 3.4834 20.5962V6.59619C3.4834 6.04619 3.67923 5.57536 4.0709 5.18369C4.46257 4.79202 4.9334 4.59619 5.4834 4.59619H6.4834V2.59619H8.4834V4.59619H16.4834V2.59619H18.4834V4.59619H19.4834C20.0334 4.59619 20.5042 4.79202 20.8959 5.18369C21.2876 5.57536 21.4834 6.04619 21.4834 6.59619V20.5962C21.4834 21.1462 21.2876 21.617 20.8959 22.0087C20.5042 22.4004 20.0334 22.5962 19.4834 22.5962H5.4834ZM5.4834 20.5962H19.4834V10.5962H5.4834V20.5962ZM5.4834 8.59619H19.4834V6.59619H5.4834V8.59619ZM12.4834 14.5962C12.2001 14.5962 11.9626 14.5004 11.7709 14.3087C11.5792 14.117 11.4834 13.8795 11.4834 13.5962C11.4834 13.3129 11.5792 13.0754 11.7709 12.8837C11.9626 12.692 12.2001 12.5962 12.4834 12.5962C12.7667 12.5962 13.0042 12.692 13.1959 12.8837C13.3876 13.0754 13.4834 13.3129 13.4834 13.5962C13.4834 13.8795 13.3876 14.117 13.1959 14.3087C13.0042 14.5004 12.7667 14.5962 12.4834 14.5962ZM8.4834 14.5962C8.20007 14.5962 7.96256 14.5004 7.7709 14.3087C7.57923 14.117 7.4834 13.8795 7.4834 13.5962C7.4834 13.3129 7.57923 13.0754 7.7709 12.8837C7.96256 12.692 8.20007 12.5962 8.4834 12.5962C8.76673 12.5962 9.00423 12.692 9.1959 12.8837C9.38757 13.0754 9.4834 13.3129 9.4834 13.5962C9.4834 13.8795 9.38757 14.117 9.1959 14.3087C9.00423 14.5004 8.76673 14.5962 8.4834 14.5962ZM16.4834 14.5962C16.2001 14.5962 15.9626 14.5004 15.7709 14.3087C15.5792 14.117 15.4834 13.8795 15.4834 13.5962C15.4834 13.3129 15.5792 13.0754 15.7709 12.8837C15.9626 12.692 16.2001 12.5962 16.4834 12.5962C16.7667 12.5962 17.0042 12.692 17.1959 12.8837C17.3876 13.0754 17.4834 13.3129 17.4834 13.5962C17.4834 13.8795 17.3876 14.117 17.1959 14.3087C17.0042 14.5004 16.7667 14.5962 16.4834 14.5962ZM12.4834 18.5962C12.2001 18.5962 11.9626 18.5004 11.7709 18.3087C11.5792 18.117 11.4834 17.8795 11.4834 17.5962C11.4834 17.3129 11.5792 17.0754 11.7709 16.8837C11.9626 16.692 12.2001 16.5962 12.4834 16.5962C12.7667 16.5962 13.0042 16.692 13.1959 16.8837C13.3876 17.0754 13.4834 17.3129 13.4834 17.5962C13.4834 17.8795 13.3876 18.117 13.1959 18.3087C13.0042 18.5004 12.7667 18.5962 12.4834 18.5962ZM8.4834 18.5962C8.20007 18.5962 7.96256 18.5004 7.7709 18.3087C7.57923 18.117 7.4834 17.8795 7.4834 17.5962C7.4834 17.3129 7.57923 17.0754 7.7709 16.8837C7.96256 16.692 8.20007 16.5962 8.4834 16.5962C8.76673 16.5962 9.00423 16.692 9.1959 16.8837C9.38757 17.0754 9.4834 17.3129 9.4834 17.5962C9.4834 17.8795 9.38757 18.117 9.1959 18.3087C9.00423 18.5004 8.76673 18.5962 8.4834 18.5962ZM16.4834 18.5962C16.2001 18.5962 15.9626 18.5004 15.7709 18.3087C15.5792 18.117 15.4834 17.8795 15.4834 17.5962C15.4834 17.3129 15.5792 17.0754 15.7709 16.8837C15.9626 16.692 16.2001 16.5962 16.4834 16.5962C16.7667 16.5962 17.0042 16.692 17.1959 16.8837C17.3876 17.0754 17.4834 17.3129 17.4834 17.5962C17.4834 17.8795 17.3876 18.117 17.1959 18.3087C17.0042 18.5004 16.7667 18.5962 16.4834 18.5962Z" fill="#D12149"/>
</svg>
