<svg width="64" height="64" viewBox="0 0 64 64" fill="none" xmlns="http://www.w3.org/2000/svg">
<path d="M50.7939 32.6191H13.2939C12.6036 32.6191 12.0439 32.0594 12.0439 31.3691V23.8691C12.0439 23.1788 12.6036 22.6191 13.2939 22.6191H50.7939C51.4842 22.6191 52.0439 23.1788 52.0439 23.8691V31.3691C52.0439 32.0594 51.4842 32.6191 50.7939 32.6191ZM14.5438 30.1191H49.5438V25.1191H14.5438V30.1191Z" fill="#D12149"/>
<path d="M47.0439 25.1191H17.0439C16.3536 25.1191 15.7939 24.5595 15.7939 23.8691V16.3691C15.7939 15.6788 16.3536 15.1191 17.0439 15.1191H47.0439C47.7342 15.1191 48.2939 15.6788 48.2939 16.3691V23.8691C48.2939 24.5594 47.7342 25.1191 47.0439 25.1191ZM18.2938 22.6191H45.7938V17.6191H18.2938V22.6191Z" fill="#D12149"/>
<path d="M34.5439 28.8691H18.2939C17.6036 28.8691 17.0439 28.3095 17.0439 27.6191C17.0439 26.9288 17.6036 26.3691 18.2939 26.3691H34.5439C35.2342 26.3691 35.7939 26.9288 35.7939 27.6191C35.7939 28.3095 35.2342 28.8691 34.5439 28.8691Z" fill="#D12149"/>
<path d="M45.7939 28.8691H38.2939C37.6037 28.8691 37.0439 28.3095 37.0439 27.6191C37.0439 26.9288 37.6037 26.3691 38.2939 26.3691H45.7939C46.4842 26.3691 47.0439 26.9288 47.0439 27.6191C47.0439 28.3095 46.4842 28.8691 45.7939 28.8691Z" fill="#D12149"/>
<path d="M29.5439 21.3691H22.0439C21.3536 21.3691 20.7939 20.8095 20.7939 20.1191C20.7939 19.4288 21.3536 18.8691 22.0439 18.8691H29.5439C30.2343 18.8691 30.7939 19.4288 30.7939 20.1191C30.7939 20.8095 30.2343 21.3691 29.5439 21.3691Z" fill="#D12149"/>
<path d="M44.5439 62.6191H19.5439C18.8938 62.6191 18.3521 62.1209 18.2983 61.4729L15.7983 31.473C15.7693 31.1246 15.8874 30.78 16.124 30.5228C16.3608 30.2655 16.6944 30.1191 17.0439 30.1191H47.0439C47.3935 30.1191 47.727 30.2655 47.9636 30.5228C48.2004 30.78 48.3185 31.1245 48.2895 31.473L45.7895 61.4729C45.7355 62.1209 45.194 62.6191 44.5439 62.6191ZM20.6939 60.1191H43.3936L45.6853 32.6193H18.4023L20.6939 60.1191Z" fill="#D12149"/>
<path d="M42.0439 21.3691H34.5439C33.8537 21.3691 33.2939 20.8095 33.2939 20.1191C33.2939 19.4288 33.8537 18.8691 34.5439 18.8691H42.0439C42.7342 18.8691 43.2939 19.4288 43.2939 20.1191C43.2939 20.8095 42.7342 21.3691 42.0439 21.3691Z" fill="#D12149"/>
<path d="M33.2955 17.6198C33.2273 17.6198 33.1582 17.6141 33.0887 17.6025C32.4077 17.489 31.9477 16.845 32.0612 16.164L33.3112 8.664C33.3769 8.2695 33.6274 7.93025 33.9853 7.7515L46.4853 1.5015C47.1024 1.1925 47.8534 1.443 48.1623 2.0605C48.471 2.678 48.2208 3.42888 47.6032 3.73763L35.6725 9.703L34.5273 16.5751C34.4252 17.1865 33.8955 17.6198 33.2955 17.6198Z" fill="#D12149"/>
</svg>
