<svg width="66" height="66" viewBox="0 0 66 66" fill="none" xmlns="http://www.w3.org/2000/svg">
<path d="M56.3379 24.5185C61.0411 37.6172 54.2352 52.0484 41.1366 56.7516C28.0379 61.4547 13.6067 54.6489 8.90354 41.5502C4.20037 28.4516 11.0062 14.0203 24.1049 9.31716C37.2035 4.61399 51.6348 11.4199 56.3379 24.5185ZM20.8983 37.2434C23.2229 43.7175 30.3556 47.0814 36.8298 44.7568C43.3039 42.4322 46.6678 35.2995 44.3432 28.8253C42.0186 22.3512 34.8858 18.9873 28.4117 21.3119C21.9376 23.6365 18.5737 30.7693 20.8983 37.2434Z" fill="white" fill-opacity="0.6" stroke="#D12149" stroke-width="0.7" stroke-linecap="round" stroke-linejoin="round"/>
<path d="M14.1289 19.5886L21.0134 23.3405L20.2608 24.7214L17.3315 23.1249L15.7243 26.074L18.6536 27.6704L17.9011 29.0513L11.0166 25.2993L11.7691 23.9185L14.5999 25.4612L16.2071 22.5121L13.3764 20.9694L14.1289 19.5886Z" fill="#D12149"/>
<path d="M23.9245 20.9815C23.287 21.345 22.6162 21.5291 21.9121 21.534C21.208 21.5389 20.5496 21.3669 19.937 21.018C19.3206 20.6626 18.8213 20.1498 18.4393 19.4798C18.061 18.8162 17.8777 18.132 17.8896 17.427C17.8977 16.7155 18.0832 16.0581 18.446 15.4547C18.8088 14.8513 19.309 14.3678 19.9466 14.0043C20.5906 13.6372 21.2614 13.453 21.959 13.4518C22.663 13.4469 23.32 13.624 23.9299 13.9831C24.5426 14.3321 25.0381 14.8383 25.4164 15.5019C25.7985 16.1719 25.9854 16.8627 25.9773 17.5742C25.972 18.2754 25.7879 18.9278 25.4251 19.5312C25.0622 20.1346 24.562 20.618 23.9245 20.9815ZM23.2291 19.7617C23.6389 19.528 23.948 19.2311 24.1564 18.8709C24.3611 18.5042 24.453 18.0984 24.4321 17.6535C24.4112 17.2085 24.2709 16.7584 24.0113 16.303C23.7516 15.8476 23.4375 15.5009 23.069 15.2627C22.6968 15.0181 22.3026 14.8937 21.8865 14.8896C21.4704 14.8854 21.0574 15.0002 20.6476 15.2339C20.2377 15.4676 19.9253 15.7663 19.7104 16.1302C19.502 16.4904 19.4083 16.893 19.4292 17.3379C19.4464 17.7763 19.5849 18.2232 19.8445 18.6786C20.1041 19.134 20.4201 19.484 20.7923 19.7287C21.1645 19.9733 21.5605 20.101 21.9804 20.1116C22.403 20.112 22.8192 19.9954 23.2291 19.7617Z" fill="#D12149"/>
<path d="M36.0079 10.9126L36.0625 18.7529L34.49 18.7639L34.4545 13.6643L32.3895 18.7785L31.1988 18.7868L29.0516 13.702L29.0871 18.8015L27.5146 18.8125L27.46 10.9722L29.2459 10.9597L31.7802 16.772L34.2332 10.925L36.0079 10.9126Z" fill="#D12149"/>
<path d="M41.4703 13.5683L40.6466 15.3531L43.0434 16.4593L42.5209 17.5913L40.1241 16.4852L39.2533 18.372L41.956 19.6194L41.4194 20.782L37.2888 18.8757L40.5791 11.7466L44.7097 13.653L44.1731 14.8156L41.4703 13.5683Z" fill="#D12149"/>
<path d="M15.9521 43.5801C16.4001 42.9735 16.9357 42.5317 17.5589 42.2547C18.1924 41.9762 18.8426 41.8784 19.5095 41.9613C20.1866 42.0427 20.8196 42.3009 21.4086 42.7359C22.0977 43.2447 22.5709 43.8673 22.8282 44.6034C23.0855 45.3395 23.0867 46.0958 22.8317 46.8724L21.4094 45.822C21.4856 45.4231 21.4484 45.0543 21.298 44.7157C21.1535 44.3815 20.9134 44.0904 20.5777 43.8425C20.2184 43.5771 19.8344 43.4255 19.4256 43.3875C19.027 43.348 18.6351 43.4226 18.2499 43.6114C17.8706 43.8046 17.5287 44.1073 17.2242 44.5196C16.9241 44.926 16.7354 45.3418 16.658 45.767C16.5908 46.1907 16.6326 46.5902 16.7832 46.9654C16.9441 47.3391 17.2042 47.6586 17.5635 47.9239C17.8992 48.1718 18.248 48.3157 18.61 48.3555C18.9823 48.3937 19.3478 48.3178 19.7066 48.1277L21.1289 49.1781C20.4574 49.6561 19.732 49.8803 18.9528 49.8509C18.1837 49.82 17.4518 49.5479 16.7568 49.0347C16.1678 48.5997 15.7327 48.0736 15.4514 47.4563C15.1803 46.8374 15.0825 46.1872 15.158 45.5057C15.2394 44.8286 15.5041 44.1867 15.9521 43.5801Z" fill="#D12149"/>
<path d="M25.2996 54.3583C24.6064 54.1734 24.0131 53.8408 23.5199 53.3606C23.0267 52.8804 22.6867 52.3085 22.5001 51.6449C22.3153 50.9742 22.3201 50.2746 22.5146 49.5459C22.7071 48.8244 23.0496 48.2224 23.542 47.74C24.0364 47.2506 24.617 46.9205 25.2839 46.7499C25.9508 46.5793 26.6309 46.5865 27.3241 46.7715C28.0245 46.9584 28.6177 47.2909 29.1039 47.7692C29.5971 48.2494 29.9326 48.8239 30.1102 49.4927C30.2969 50.1563 30.294 50.8489 30.1014 51.5704C29.907 52.2991 29.5626 52.9081 29.0683 53.3976C28.5829 53.8818 28.0068 54.2093 27.3399 54.3799C26.673 54.5505 25.9929 54.5433 25.2996 54.3583ZM25.6536 53.032C26.0992 53.1509 26.5183 53.1566 26.9107 53.0492C27.305 52.9346 27.6476 52.7154 27.9387 52.3914C28.2297 52.0675 28.4413 51.6579 28.5734 51.1627C28.7056 50.6675 28.7252 50.2105 28.6324 49.7917C28.5414 49.3658 28.3526 49.0085 28.0659 48.7199C27.7792 48.4312 27.413 48.2274 26.9674 48.1085C26.5217 47.9895 26.0991 47.9829 25.6996 48.0884C25.3072 48.1959 24.9655 48.4116 24.6745 48.7356C24.3853 49.0525 24.1747 49.4585 24.0425 49.9537C23.9104 50.4488 23.8898 50.9094 23.9808 51.3353C24.0717 51.7612 24.2596 52.122 24.5444 52.4177C24.8382 52.7083 25.2079 52.913 25.6536 53.032Z" fill="#D12149"/>
<path d="M36.1017 55.5467C35.3885 55.6252 34.7151 55.5298 34.0815 55.2607C33.4479 54.9916 32.924 54.5815 32.5098 54.0304C32.0949 53.4721 31.8462 52.8181 31.7637 52.0685C31.682 51.3262 31.7834 50.6411 32.0679 50.0132C32.3516 49.378 32.7734 48.8602 33.3333 48.4598C33.8933 48.0594 34.5298 47.8199 35.243 47.7415C35.9635 47.6622 36.6369 47.7575 37.2632 48.0274C37.8968 48.2966 38.4175 48.7107 38.8252 49.2698C39.2393 49.8209 39.4873 50.4676 39.5689 51.2099C39.6514 51.9595 39.5508 52.6519 39.2671 53.2871C38.9899 53.9142 38.5713 54.428 38.0114 54.8284C37.4515 55.2288 36.8149 55.4682 36.1017 55.5467ZM35.9516 54.1821C36.4101 54.1317 36.8028 53.9854 37.1297 53.7432C37.4558 53.4937 37.6959 53.1653 37.8499 52.758C38.004 52.3506 38.053 51.8923 37.997 51.3828C37.9409 50.8734 37.7938 50.4403 37.5557 50.0834C37.3168 49.7193 37.0114 49.4546 36.6397 49.2893C36.268 49.1239 35.8528 49.0665 35.3944 49.1169C34.9359 49.1674 34.5395 49.3141 34.2053 49.5571C33.8784 49.7993 33.6379 50.1241 33.4839 50.5314C33.329 50.9314 33.2796 51.3862 33.3357 51.8956C33.3917 52.405 33.5392 52.8418 33.7781 53.2059C34.017 53.57 34.3228 53.8384 34.6953 54.011C35.0743 54.1755 35.4931 54.2326 35.9516 54.1821Z" fill="#D12149"/>
<path d="M47.4273 49.9156L43.1138 48.9988L45.2522 51.6621L44.0533 52.6247L39.2539 46.6475L40.4528 45.6848L42.605 48.3652L42.6279 43.9383L44.0751 42.7763L43.9879 47.7195L48.943 48.6985L47.4273 49.9156Z" fill="#D12149"/>
<path d="M46.3148 40.8991L48.0538 41.7174L49.1526 39.3822L50.2556 39.9012L49.1568 42.2364L50.9952 43.1014L52.2343 40.4681L53.3671 41.0011L51.4735 45.0257L44.5273 41.7573L46.421 37.7328L47.5538 38.2658L46.3148 40.8991Z" fill="#D12149"/>
<path d="M47.636 33.5294C47.8062 32.7422 48.1095 32.0849 48.5457 31.5576C48.9834 31.023 49.5234 30.6567 50.1655 30.4585C50.8021 30.2516 51.496 30.2295 52.2474 30.392C52.9988 30.5546 53.6215 30.8616 54.1156 31.3131C54.6041 31.7558 54.9372 32.3111 55.1149 32.9787C55.2941 33.6393 55.2985 34.3631 55.1283 35.1502L54.5616 37.7693L47.0693 36.1484L47.636 33.5294ZM53.8393 34.9276C54.0096 34.1404 53.9265 33.4857 53.59 32.9635C53.2536 32.4412 52.6953 32.0957 51.9153 31.927C51.1353 31.7582 50.4806 31.8413 49.9512 32.1762C49.4147 32.5096 49.0612 33.0699 48.8909 33.857L48.6611 34.9197L53.6094 35.9902L53.8393 34.9276Z" fill="#D12149"/>
<g clip-path="url(#clip0_10012_5783)">
<path d="M47.2103 25.3024C47.2968 25.5432 47.4272 25.7537 47.6018 25.9341C47.7763 26.1145 47.9829 26.2533 48.2217 26.3505C48.2087 26.329 48.1989 26.309 48.1923 26.2905L48.1698 26.228C48.1166 26.0798 48.0946 25.9309 48.1036 25.7814C48.1126 25.6318 48.1512 25.4846 48.2195 25.3399L48.7274 24.2873L49.7889 24.7764C49.9336 24.8446 50.0571 24.9336 50.1592 25.0433C50.2613 25.153 50.3389 25.2819 50.3921 25.43L50.4145 25.4925C50.4212 25.5111 50.4264 25.5327 50.43 25.5575C50.5524 25.3307 50.6236 25.0921 50.6435 24.8419C50.6634 24.5918 50.6302 24.3463 50.5437 24.1055C50.4606 23.8741 50.3392 23.6707 50.1796 23.4954C50.02 23.3201 49.8301 23.1806 49.6098 23.0767C49.5389 23.1701 49.4578 23.2502 49.3668 23.3169C49.2757 23.3835 49.177 23.436 49.0705 23.4742C48.7835 23.5773 48.5005 23.5717 48.2217 23.4575C47.9429 23.3434 47.7374 23.1532 47.6053 22.887C47.4796 23.1047 47.3768 23.3206 47.2969 23.5348C47.217 23.749 47.16 23.9577 47.1257 24.1607C47.0915 24.3638 47.0817 24.562 47.0962 24.7554C47.1108 24.9488 47.1488 25.1311 47.2103 25.3024ZM49.0067 25.0651L48.7505 25.5961C48.7178 25.6653 48.6993 25.7373 48.6948 25.8121C48.6903 25.8869 48.7005 25.959 48.7254 26.0285C48.7786 26.1766 48.8787 26.2844 49.0257 26.3518C49.1728 26.4193 49.3227 26.4255 49.4755 26.3707C49.6282 26.3158 49.7399 26.2156 49.8105 26.0701C49.881 25.9245 49.8897 25.7777 49.8365 25.6295C49.8099 25.5554 49.7715 25.4921 49.7213 25.4396C49.6711 25.3871 49.6114 25.3445 49.5422 25.3119L49.0067 25.0651ZM47.7799 21.6484L48.109 22.5651C48.1655 22.7225 48.2673 22.8349 48.4144 22.9023C48.5614 22.9697 48.7136 22.9752 48.871 22.9186C48.9544 22.8887 49.0257 22.8435 49.085 22.783C49.1443 22.7225 49.1892 22.6476 49.2198 22.5582L49.29 22.3605C49.7024 22.432 50.0705 22.6056 50.3942 22.8813C50.718 23.1571 50.953 23.4986 51.0993 23.9061C51.322 24.5264 51.2954 25.1292 51.0195 25.7144C50.7435 26.2995 50.2953 26.7035 49.6749 26.9262C49.0546 27.149 48.4518 27.1224 47.8666 26.8464C47.2815 26.5705 46.8775 26.1223 46.6548 25.5019C46.4403 24.9047 46.4369 24.2656 46.6446 23.5848C46.8522 22.904 47.2306 22.2585 47.7799 21.6484Z" fill="#D12149"/>
</g>
<g clip-path="url(#clip1_10012_5783)">
<path d="M12.7552 37.6735C12.8417 37.9143 12.9722 38.1248 13.1467 38.3052C13.3212 38.4856 13.5278 38.6244 13.7666 38.7216C13.7536 38.7001 13.7439 38.6801 13.7372 38.6616L13.7148 38.5991C13.6616 38.4509 13.6395 38.302 13.6485 38.1525C13.6575 38.0029 13.6961 37.8557 13.7644 37.711L14.2723 36.6584L15.3339 37.1475C15.4786 37.2157 15.602 37.3047 15.7041 37.4144C15.8062 37.5241 15.8838 37.653 15.937 37.8011L15.9595 37.8636C15.9661 37.8822 15.9713 37.9038 15.975 37.9286C16.0973 37.7018 16.1685 37.4632 16.1884 37.213C16.2083 36.9628 16.1751 36.7174 16.0886 36.4766C16.0055 36.2451 15.8842 36.0418 15.7245 35.8665C15.5649 35.6912 15.375 35.5517 15.1548 35.4478C15.0838 35.5412 15.0028 35.6213 14.9117 35.688C14.8207 35.7546 14.7219 35.8071 14.6154 35.8453C14.3284 35.9484 14.0454 35.9428 13.7666 35.8286C13.4878 35.7144 13.2824 35.5243 13.1502 35.2581C13.0245 35.4757 12.9217 35.6917 12.8418 35.9059C12.762 36.1201 12.7049 36.3288 12.6707 36.5318C12.6364 36.7349 12.6266 36.9331 12.6412 37.1265C12.6557 37.3199 12.6937 37.5022 12.7552 37.6735ZM14.5516 37.4362L14.2954 37.9672C14.2628 38.0364 14.2442 38.1084 14.2397 38.1832C14.2352 38.258 14.2454 38.3301 14.2703 38.3996C14.3235 38.5477 14.4236 38.6555 14.5707 38.7229C14.7177 38.7903 14.8676 38.7966 15.0204 38.7418C15.1732 38.6869 15.2848 38.5867 15.3554 38.4412C15.426 38.2956 15.4347 38.1488 15.3815 38.0006C15.3549 37.9265 15.3165 37.8632 15.2662 37.8107C15.216 37.7582 15.1563 37.7156 15.0871 37.683L14.5516 37.4362ZM13.3248 34.0195L13.6539 34.9361C13.7105 35.0936 13.8122 35.206 13.9593 35.2734C14.1063 35.3408 14.2585 35.3463 14.4159 35.2897C14.4993 35.2598 14.5706 35.2146 14.6299 35.1541C14.6892 35.0936 14.7341 35.0187 14.7648 34.9293L14.8349 34.7316C15.2473 34.8031 15.6154 34.9767 15.9392 35.2524C16.2629 35.5282 16.4979 35.8697 16.6442 36.2772C16.867 36.8975 16.8404 37.5003 16.5644 38.0855C16.2884 38.6706 15.8402 39.0746 15.2199 39.2973C14.5995 39.5201 13.9967 39.4935 13.4116 39.2175C12.8264 38.9416 12.4224 38.4934 12.1997 37.873C11.9852 37.2758 11.9818 36.6367 12.1895 35.9559C12.3971 35.275 12.7756 34.6296 13.3248 34.0195Z" fill="#D12149"/>
</g>
<circle cx="32.6214" cy="33.0342" r="27.3076" transform="rotate(0.371054 32.6214 33.0342)" stroke="#D12149" stroke-linecap="round" stroke-dasharray="1 2"/>
<defs>
<clipPath id="clip0_10012_5783">
<rect width="7.08352" height="7.08352" fill="white" transform="translate(44.501 22.0415) rotate(-19.7511)"/>
</clipPath>
<clipPath id="clip1_10012_5783">
<rect width="7.08352" height="7.08352" fill="white" transform="translate(10.3506 34.3032) rotate(-19.7511)"/>
</clipPath>
</defs>
</svg>
