<svg width="64" height="64" viewBox="0 0 64 64" fill="none" xmlns="http://www.w3.org/2000/svg">
<g clip-path="url(#clip0_10247_24746)">
<path d="M30.4568 23.5792C29.9299 23.8427 29.7154 24.4827 29.9789 25.0096C30.1666 25.384 30.5431 25.5995 30.9346 25.5995C31.0946 25.5995 31.2579 25.5632 31.4104 25.4875C31.5213 25.431 34.1336 24.0934 34.1336 21.3329C34.1336 19.8246 33.3369 19.0268 32.7544 18.4454C32.2318 17.9228 32.0003 17.6656 32.0003 17.0661C32.0003 16.4666 32.2318 16.2096 32.7544 15.6869C33.3368 15.1055 34.1336 14.3076 34.1336 12.7994C34.1336 10.0389 31.5214 8.7013 31.4104 8.6458C30.8888 8.38555 30.252 8.59567 29.9864 9.11729C29.7198 9.64104 29.9299 10.281 30.4504 10.5509C30.4653 10.5584 32.0003 11.3679 32.0003 12.7994C32.0003 13.3989 31.7688 13.6559 31.2461 14.1787C30.6638 14.76 29.8669 15.5579 29.8669 17.0661C29.8669 18.5744 30.6636 19.3723 31.2461 19.9536C31.7688 20.4763 32.0003 20.7334 32.0003 21.3329C32.0003 22.7644 30.4654 23.5739 30.4568 23.5792Z" fill="#D12149"/>
<path d="M23.4669 23.4658C23.4669 24.8877 21.9533 25.6952 21.9171 25.7143C21.3954 25.9799 21.1832 26.6178 21.4456 27.1426C21.6333 27.5169 22.0098 27.7324 22.4013 27.7324C22.5613 27.7324 22.7246 27.6962 22.8771 27.6204C22.9879 27.5639 25.6003 26.2263 25.6003 23.4658C25.6003 21.9576 24.8035 21.1597 24.221 20.5783C23.6984 20.0557 23.4669 19.7986 23.4669 19.1991C23.4669 17.7676 25.0008 16.958 25.0104 16.9537C25.5373 16.6902 25.7518 16.0492 25.4872 15.5222C25.2248 14.9954 24.5848 14.7799 24.0568 15.0455C23.9459 15.101 21.3336 16.4386 21.3336 19.1991C21.3336 20.7073 22.1303 21.5052 22.7128 22.0866C23.2356 22.6092 23.4669 22.8663 23.4669 23.4658Z" fill="#D12149"/>
<path d="M40.5332 23.4659C40.5332 24.8877 39.0207 25.6952 38.9844 25.7144C38.4618 25.98 38.2496 26.6179 38.5119 27.1426C38.6997 27.517 39.0762 27.7325 39.4677 27.7325C39.6277 27.7325 39.7909 27.6962 39.9434 27.6205C40.0554 27.564 42.6667 26.2264 42.6667 23.4659C42.6667 21.9576 41.8699 21.1598 41.2874 20.5784C40.7648 20.0558 40.5333 19.7986 40.5333 19.1991C40.5333 17.7676 42.0672 16.958 42.0768 16.9538C42.6037 16.6903 42.8182 16.0493 42.5535 15.5223C42.2891 14.9954 41.6491 14.782 41.1232 15.0455C41.0112 15.101 38.3999 16.4387 38.3999 19.1991C38.3999 20.7074 39.1967 21.5053 39.7792 22.0866C40.3017 22.6093 40.5332 22.8664 40.5332 23.4659Z" fill="#D12149"/>
<path d="M14.9336 34.1326C15.6632 34.1326 16.3341 34.5059 16.7309 35.1309C17.0349 35.6098 17.661 35.7667 18.1582 35.4872C18.9944 35.0136 19.9662 35.1533 20.6339 35.7677C20.9368 36.0451 21.371 36.1229 21.7518 35.9724C22.1315 35.8199 22.3918 35.4637 22.4195 35.0541C22.4963 33.9394 23.4243 33.0658 24.5336 33.0658C25.2494 33.0658 25.9139 33.4242 26.3108 34.0237C26.7065 34.6211 27.6943 34.6211 28.0889 34.0237C28.8164 32.9282 30.5134 32.7746 31.4254 33.7559C31.6781 34.0279 32.0526 34.1506 32.4174 34.0759C32.78 34.0034 33.0809 33.7474 33.2089 33.3997C33.5171 32.5613 34.3171 31.9992 35.2004 31.9992C36.3758 31.9992 37.3337 32.9559 37.3326 34.1058C37.3293 34.1282 37.3177 34.2306 37.3155 34.2531C37.2877 34.6136 37.4446 34.9646 37.7336 35.1832C38.0205 35.4029 38.4023 35.4616 38.7416 35.3378C39.6642 35.0051 40.4526 35.2706 41.0253 35.8893C41.2781 36.1613 41.6536 36.2829 42.0173 36.2093C42.38 36.1368 42.6808 35.8808 42.8088 35.5331C43.1171 34.6947 43.9171 34.1326 44.8003 34.1326C45.7539 34.1326 46.5966 34.7822 46.8483 35.7123C46.9272 36.0067 47.1299 36.2531 47.4019 36.3886C47.6739 36.5251 47.9918 36.5368 48.2756 36.4238C49.2462 36.0323 50.3247 36.4111 50.8643 37.2633C51.1672 37.7433 51.7944 37.9022 52.2904 37.6207C53.2067 37.1044 54.2808 37.3284 54.9208 38.0409C55.1309 38.2756 55.4231 38.3951 55.7144 38.3951C55.9693 38.3951 56.2243 38.3054 56.4269 38.1221C56.8653 37.7284 56.9026 37.0543 56.509 36.6159C55.4156 35.3988 53.645 34.8986 52.0867 35.3936C51.165 34.4602 49.8243 33.9877 48.5038 34.1712C47.7603 32.8549 46.3544 31.9995 44.8003 31.9995C43.5001 31.9995 42.2894 32.6042 41.4937 33.5867C40.8356 33.2272 40.0878 33.0417 39.3326 33.0683C38.859 31.2293 37.1853 29.8662 35.2004 29.8662C33.9011 29.8662 32.6926 30.4688 31.8969 31.4491C30.443 30.6523 28.4943 30.8305 27.2004 31.8705C26.4538 31.27 25.5183 30.9328 24.5338 30.9328C22.8644 30.9328 21.3999 31.9142 20.7065 33.3456C19.8372 33.0117 18.8538 32.9743 17.9535 33.2592C17.161 32.4592 16.0848 31.9995 14.9338 31.9995C14.3451 31.9995 13.8672 32.4773 13.8672 33.0661C13.8672 33.6548 14.3447 34.1326 14.9336 34.1326Z" fill="#D12149"/>
<path d="M62.9331 40.5322H1.06662C0.477873 40.5322 0 41.0101 0 41.5988C0 44.5396 2.39249 46.9322 5.33335 46.9322H6.45873C6.99097 51.7258 11.0667 55.4655 16.0001 55.4655H47.9999C52.9333 55.4655 57.0079 51.7258 57.5402 46.9322H58.6665C61.6073 46.9322 63.9999 44.5397 63.9999 41.5988C63.9997 41.0101 63.523 40.5322 62.9331 40.5322ZM58.6664 44.7988H56.533C55.9432 44.7988 55.4664 45.2767 55.4664 45.8655C55.4664 49.9828 52.116 53.3321 47.9998 53.3321H15.9999C12.2442 53.3321 9.12846 50.5459 8.60909 46.9321H52.2665C52.8564 46.9321 53.3332 46.4542 53.3332 45.8655C53.3332 45.2767 52.8564 44.7988 52.2665 44.7988H5.33335C3.94236 44.7988 2.75624 43.9071 2.31574 42.6655H61.684C61.2435 43.9071 60.0574 44.7988 58.6664 44.7988Z" fill="#D12149"/>
<path d="M0.646586 31.9133L15.5799 38.3133C15.7164 38.3719 15.8594 38.4008 15.9992 38.4008C16.414 38.4008 16.8076 38.1576 16.9805 37.7533C17.213 37.2114 16.9613 36.5842 16.4205 36.3528L1.48721 29.9529C0.945335 29.7204 0.317087 29.9721 0.0867129 30.5128C-0.145911 31.0547 0.105838 31.6818 0.646586 31.9133Z" fill="#D12149"/>
</g>
<defs>
<clipPath id="clip0_10247_24746">
<rect width="64" height="64" fill="white"/>
</clipPath>
</defs>
</svg>
