<svg width="65" height="64" viewBox="0 0 65 64" fill="none" xmlns="http://www.w3.org/2000/svg">
<path d="M48.7534 23.1529C48.5974 22.978 48.3742 22.8779 48.1397 22.8779H47.6423V11.0913C47.6423 10.808 47.4965 10.5449 47.2565 10.3946C47.0165 10.2443 46.716 10.2281 46.4613 10.3518L41.6881 12.6694C41.4049 12.8069 41.2252 13.094 41.2252 13.4088V17.6743L38.0946 16.3961V8.77939C38.0946 8.49639 37.949 8.23324 37.7092 8.08293C37.4694 7.93251 37.1692 7.91631 36.9143 8.0396L33.3195 9.78009V8.8846C33.3195 8.55675 33.1245 8.26013 32.8235 8.13002L28.0503 6.06743C27.7963 5.95764 27.5042 5.98312 27.2727 6.13507C27.0415 6.28702 26.9023 6.54524 26.9023 6.82201V15.5175L23.7718 17.1689V10.1176C23.7718 9.84703 23.6386 9.59374 23.4158 9.44038C23.1928 9.28702 22.9087 9.25309 22.656 9.34984L17.8813 11.1773C17.5634 11.2991 17.3532 11.6044 17.3532 11.9451V22.8779H16.8601C16.6257 22.8779 16.4025 22.978 16.2465 23.1529C16.0905 23.3279 16.0166 23.5611 16.0435 23.794L19.8999 57.272C19.9261 57.4996 20.0462 57.7059 20.231 57.8413C20.416 57.9766 20.6491 58.0287 20.8738 57.9848C28.5883 56.4809 36.4115 56.4809 44.1261 57.9848C44.1782 57.995 44.2309 57.9999 44.2833 57.9999C44.4565 57.9999 44.6269 57.9452 44.7687 57.8413C44.9537 57.706 45.0737 57.4996 45.0999 57.272L48.9564 23.794C48.9832 23.5612 48.9093 23.3279 48.7534 23.1529ZM42.869 13.9235L45.9983 12.4041V22.8779H45.1099C44.6793 22.8779 44.3217 23.2102 44.2901 23.6395L44.1761 25.188C44.0569 26.8068 43.6066 28.3594 42.869 29.7652V13.9235ZM41.2251 19.45V32.1347C40.9859 32.4016 40.734 32.659 40.4688 32.9054C39.7444 33.5785 38.9457 34.1481 38.0945 34.6119V18.1718L41.2251 19.45ZM36.4504 10.0907L36.4503 35.3491C36.186 35.4438 35.9186 35.5297 35.6478 35.6051V25.948C35.6478 25.6129 35.4444 25.3113 35.1336 25.1858L33.3192 24.4532V11.6065L36.4504 10.0907ZM34.0038 26.5026V35.9373C33.5081 36.0011 33.0062 36.036 32.4998 36.036C31.9524 36.036 31.4096 35.9976 30.8748 35.923V25.2391L34.0038 26.5026ZM31.6753 9.42488V11.0843C31.6753 11.0868 31.6748 11.0892 31.6748 11.0916V23.7894L30.3607 23.2587C30.1073 23.1564 29.8196 23.1866 29.5932 23.3395C29.3667 23.4923 29.2309 23.7477 29.2309 24.0209V35.5726C29.0001 35.5057 28.7724 35.4292 28.5464 35.3482L28.5463 8.07295L31.6753 9.42488ZM26.9023 17.3763V34.6104C26.0522 34.1469 25.2545 33.5778 24.5311 32.9055C24.2649 32.6582 24.0119 32.3998 23.7718 32.1317V19.0275L26.9023 17.3763ZM18.9972 12.5106L22.1279 11.3123V29.7592C21.3923 28.3549 20.9429 26.8044 20.8239 25.1879L20.7099 23.6394C20.6783 23.21 20.3208 22.8778 19.8902 22.8778H18.9974L18.9972 12.5106ZM43.5677 56.2074C39.893 55.5443 36.1968 55.2128 32.4999 55.2128C28.8031 55.2128 25.1068 55.5443 21.4322 56.2074L20.8563 51.2091H44.1434L43.5677 56.2074ZM44.3329 49.5651H20.6669L19.6389 40.6407H45.3608L44.3329 49.5651ZM45.5502 38.9967H19.4496L17.7822 24.5219H19.1263L19.1843 25.3087C19.4327 28.682 20.9341 31.8077 23.4121 34.1098C25.8902 36.4121 29.1175 37.6799 32.4999 37.6799C35.8824 37.6799 39.1097 36.4121 41.5878 34.1098C44.0658 31.8077 45.5674 28.682 45.8157 25.3087L45.8736 24.5219H47.2177L45.5502 38.9967Z" fill="#D12149"/>
</svg>
